# xmcd
#
# Track frame offsets:
#       300
#       28586
#       56920
#       94769
#       112870
#       132172
#       147173
#       190651
#       209706
#       230008
#       264242
#       290309
#       304543
#
# Disc length: 4292 seconds
#
# Revision: 0
# Processed by: cddbd v1.5.1PL0 Copyright (c) Steve Scherf et al.
# Submitted via: CD-DA_X-Tractor v0.23
#
DISCID=b910c00d
DTITLE=The Black Crowes - Tall As Can Be - CD2
DYEAR=2000
DGENRE=Rock
TTITLE0=Exit
TTITLE1=Pastoral
TTITLE2=Title Song
TTITLE3=Name Like Music
TTITLE4=Thunderstorm 6:54pm
TTITLE5=Nothing Love Everything
TTITLE6=Spider In The Sugarbowl
TTITLE7=Spider In The Sugarbowl (Acoustic)
TTITLE8=If It Ever Stops Raining
TTITLE9=Another Roadside Tragedy
TTITLE10=My Heart's Killing Me
TTITLE11=Paint An 8
TTITLE12=Bled To Death
EXTD=
EXTT0=
EXTT1=
EXTT2=
EXTT3=
EXTT4=
EXTT5=
EXTT6=
EXTT7=
EXTT8=
EXTT9=
EXTT10=
EXTT11=
EXTT12=
PLAYORDER=
